<svg width="256" height="256" viewBox="0 0 256 256" fill="none" xmlns="http://www.w3.org/2000/svg">
<path d="M198.937 132.833V103.389C198.937 97.1415 196.408 91.1501 191.908 86.7326C187.407 82.3151 181.302 79.8333 174.937 79.8333C168.572 79.8333 162.467 82.3151 157.966 86.7326C153.466 91.1501 150.937 97.1415 150.937 103.389V119.878" stroke="black" stroke-width="16" stroke-linecap="round" stroke-linejoin="round"/>
<path d="M150.937 115.833V92.3333C150.937 86.1007 148.514 80.1234 144.2 75.7163C139.887 71.3092 134.037 68.8333 127.937 68.8333C121.837 68.8333 115.987 71.3092 111.674 75.7163C107.36 80.1234 104.937 86.1007 104.937 92.3333V115.833" stroke="black" stroke-width="16" stroke-linecap="round" stroke-linejoin="round"/>
<path d="M104.937 110.47V45.4697C104.937 39.2009 102.461 33.1889 98.054 28.7562C93.6469 24.3236 87.6696 21.8333 81.437 21.8333C75.2044 21.8333 69.2271 24.3236 64.82 28.7562C60.4129 33.1889 57.937 39.2009 57.937 45.4697V151.833" stroke="black" stroke-width="16" stroke-linecap="round" stroke-linejoin="round"/>
<path d="M69.1204 162.48L48.3739 141.774C43.8964 137.711 38.0247 135.521 31.9744 135.659C25.9241 135.797 20.1586 138.252 15.8717 142.515C11.5848 146.779 9.10479 152.524 8.94522 158.562C8.78565 164.6 10.9587 170.468 15.0145 174.951L57.4505 217.304C75.0142 234.716 95.0535 244.833 128.059 244.833H151.635C176.645 244.833 200.631 234.917 218.317 217.267C236.002 199.616 245.937 175.677 245.937 150.716V68.3627C245.937 62.1223 243.453 56.1375 239.032 51.7249C234.611 47.3123 228.614 44.8333 222.361 44.8333C216.109 44.8333 210.112 47.3123 205.691 51.7249C201.27 56.1375 198.786 62.1223 198.786 68.3627V127.186" stroke="black" stroke-width="16" stroke-linecap="round" stroke-linejoin="round"/>
</svg>